<svg width="650" height="430" viewBox="0 0 650 430" fill="none" xmlns="http://www.w3.org/2000/svg">
<rect width="650" height="430" fill="#B5B5B5"/>
<path fill-rule="evenodd" clip-rule="evenodd" d="M405 285C405 290.523 400.523 295 395 295H385V270H405V285ZM405 225V250H385V225H405ZM425 215V260V285C425 301.569 411.569 315 395 315H375H275H255C238.431 315 225 301.569 225 285V260V215V170V145C225 128.431 238.431 115 255 115H275H375H395C411.569 115 425 128.431 425 145V170V215ZM245 180V205H265V180H245ZM265 160H245V145C245 139.477 249.477 135 255 135H265V160ZM285 170V205H365V170V135H285V170ZM245 285V270H265V295H255C249.477 295 245 290.523 245 285ZM245 225V250H265V225H245ZM285 295V260V225H365V260V295H285ZM405 145V160H385V135H395C400.523 135 405 139.477 405 145ZM405 205V180H385V205H405Z" fill="#555555"/>
</svg>
