<svg width="140" height="147" viewBox="0 0 140 147" fill="none" xmlns="http://www.w3.org/2000/svg">
<g clip-path="url(#clip0_49_3)">
<path d="M46 7C50.3578 9.86594 53.8461 13.8385 57.4805 17.543C58.1004 18.1718 58.7204 18.8006 59.3591 19.4485C60.6069 20.7198 61.8463 21.9995 63.0764 23.2878C63.6545 23.8812 64.2326 24.4746 64.8281 25.0859C65.3428 25.6227 65.8574 26.1594 66.3877 26.7124C68.2316 28.185 69.6965 28.5936 72 29C72.2346 28.4277 72.4692 27.8553 72.7109 27.2656C74.2989 24.4747 76.1929 22.8433 78.625 20.75C82.6726 17.2164 86.4524 13.5598 90.1133 9.62891C92.8334 7.28049 95.4682 6.11314 99.0625 5.84766C102.926 6.27607 104.721 6.78185 107.875 9.25C110.855 13.1068 111.97 15.4108 112.063 20.3125C110.618 25.3243 107.847 28.535 104 32C101.77 33.2305 101.77 33.2305 100 34C103.021 35.0071 105.346 35.0247 108.496 34.9341C118.683 34.6514 125.742 36.0178 134.176 42.0117C138.988 47.257 140.598 53.0897 140.533 60.125C140.542 60.8936 140.551 61.6622 140.56 62.4541C140.582 64.9698 140.576 67.4843 140.566 70C140.572 71.763 140.578 73.526 140.585 75.2891C140.596 78.9741 140.591 82.6587 140.576 86.3438C140.559 91.0514 140.583 95.7578 140.618 100.465C140.64 104.103 140.638 107.74 140.63 111.378C140.629 113.113 140.636 114.848 140.651 116.583C140.772 133.311 140.772 133.311 135 140C132.902 142.059 132.902 142.059 130.938 143.438C129.961 144.147 129.961 144.147 128.965 144.871C125.583 146.814 122.395 147.126 118.542 147.14C117.211 147.149 117.211 147.149 115.853 147.158C114.887 147.159 113.922 147.16 112.927 147.161C111.392 147.169 111.392 147.169 109.826 147.176C106.44 147.191 103.054 147.198 99.668 147.203C97.3139 147.209 94.9599 147.215 92.6058 147.22C87.6688 147.231 82.7317 147.237 77.7947 147.24C71.4729 147.246 65.1514 147.27 58.8297 147.298C53.9664 147.317 49.1031 147.322 44.2397 147.324C41.9093 147.327 39.579 147.335 37.2486 147.348C33.9861 147.365 30.7242 147.363 27.4617 147.356C26.5019 147.366 25.5422 147.375 24.5534 147.384C17.4152 147.34 11.881 145.992 6.25 141.312C5.69829 140.876 5.14657 140.439 4.57813 139.988C0.412083 134.739 -0.446606 128.563 -0.404049 122.059C-0.414343 120.935 -0.414343 120.935 -0.424846 119.789C-0.442992 117.338 -0.439295 114.888 -0.43359 112.438C-0.438157 110.719 -0.443464 109.001 -0.449474 107.283C-0.458381 103.692 -0.456009 100.102 -0.446041 96.5107C-0.434545 91.9243 -0.454785 87.3387 -0.483959 82.7524C-0.502361 79.2074 -0.502022 75.6627 -0.496322 72.1177C-0.49617 70.4273 -0.502166 68.7369 -0.51461 67.0466C-0.618158 50.6798 -0.61816 50.6798 4 44C6 41.9766 6 41.9766 8 40.625C8.66 40.1635 9.32 39.702 10 39.2266C13.812 36.8887 16.7022 35.7335 21.2031 35.3672C22.1828 35.2834 23.1625 35.1996 24.1719 35.1133C25.6956 34.9953 25.6956 34.9953 27.25 34.875C28.7969 34.7454 28.7969 34.7454 30.375 34.6133C32.9162 34.4015 35.4577 34.1974 38 34C37.4341 33.4457 36.8682 32.8914 36.2852 32.3203C35.5517 31.5959 34.8182 30.8714 34.0625 30.125C33.3316 29.4057 32.6007 28.6864 31.8477 27.9453C28.472 24.3913 28.6044 21.2839 28.6523 16.5469C29.2266 12.3397 30.8463 10.8033 34 8C38.1651 5.47904 41.3714 5.66633 46 7ZM24 59C24 80.12 24 101.24 24 123C36.1064 123.208 36.1064 123.208 48.2129 123.404C53.1691 123.482 58.1253 123.561 63.0813 123.648C67.0883 123.719 71.0954 123.783 75.1027 123.843C76.6121 123.866 78.1214 123.892 79.6308 123.921C91.8274 124.148 103.768 123.582 116 123C116 102.21 116 81.42 116 60C105.499 59.4166 95.1701 58.8433 84.6782 58.8867C83.9239 58.8892 83.1695 58.8917 82.3924 58.8943C81.2352 58.8983 81.2352 58.8983 80.0547 58.9023C78.4213 58.9042 76.788 58.9056 75.1546 58.9066C70.9232 58.9104 66.6918 58.9202 62.4605 58.9313C57.3473 58.9435 52.2341 58.948 47.1209 58.9538C39.4139 58.9634 31.707 58.9826 24 59Z" fill="#DF1D47"/>
<path d="M41 65C42.9164 64.9458 44.8332 64.9071 46.75 64.875C48.351 64.8402 48.351 64.8402 49.9844 64.8047C53.0738 65.0048 54.5122 65.2072 57 67C57.606 69.5061 57.606 69.5061 57.7578 72.6289C57.8603 74.3044 57.8603 74.3044 57.9648 76.0137C58.0177 77.1848 58.0705 78.3559 58.125 79.5625C58.2443 81.8767 58.3715 84.1906 58.5078 86.5039C58.5557 87.5333 58.6035 88.5627 58.6528 89.6233C58.7674 90.4076 58.882 91.1919 59 92C62.3283 93.6641 65.9973 92.8187 69.625 92.5625C70.4268 92.5103 71.2286 92.4581 72.0547 92.4043C74.0368 92.2745 76.0184 92.1379 78 92C77.9948 91.2479 77.9895 90.4958 77.9841 89.7209C77.9634 86.3348 77.9504 82.9487 77.9375 79.5625C77.9291 78.3785 77.9207 77.1945 77.9121 75.9746C77.9089 74.8499 77.9057 73.7252 77.9023 72.5664C77.8971 71.5243 77.8919 70.4822 77.8865 69.4084C78 67 78 67 79 66C80.3402 65.8442 81.6876 65.7496 83.0352 65.6836C83.844 65.6417 84.6529 65.5998 85.4863 65.5566C86.7615 65.4977 86.7615 65.4977 88.0625 65.4375C88.9165 65.3943 89.7705 65.3511 90.6504 65.3066C92.7667 65.2002 94.8833 65.0996 97 65C99.1283 81.6954 100.187 98.1678 100 115C96.7613 116.08 94.3397 116.133 90.9375 116.125C89.874 116.128 88.8106 116.13 87.7148 116.133C85 116 85 116 83 115C82.375 111.938 82.375 111.938 82 109C81.4921 109.349 80.9842 109.699 80.4609 110.059C76.2869 112.818 73.0998 114.694 68 115C67.3065 115.05 66.613 115.101 65.8984 115.152C58.0238 115.473 48.4932 114.709 41.6484 110.582C39.1752 108.208 39.0104 106.225 38.8547 102.865C38.8345 99.4418 38.8143 96.0192 38.8147 92.5962C38.8125 90.4038 38.7944 88.2119 38.7754 86.0195C38.7472 78.7665 39.0013 72.0309 41 65Z" fill="#DD1D48"/>
</g>
<defs>
<clipPath id="clip0_49_3">
<rect width="140" height="147" fill="white"/>
</clipPath>
</defs>
</svg>
